<?xml version="1.0" encoding="UTF-8" standalone="no"?>
<!-- Generator: Adobe Illustrator 17.0.0, SVG Export Plug-In . SVG Version: 6.00 Build 0)  -->

<svg
   xmlns:dc="http://purl.org/dc/elements/1.1/"
   xmlns:cc="http://creativecommons.org/ns#"
   xmlns:rdf="http://www.w3.org/1999/02/22-rdf-syntax-ns#"
   xmlns:svg="http://www.w3.org/2000/svg"
   xmlns="http://www.w3.org/2000/svg"
   xmlns:sodipodi="http://sodipodi.sourceforge.net/DTD/sodipodi-0.dtd"
   xmlns:inkscape="http://www.inkscape.org/namespaces/inkscape"
   version="1.1"
   id="Layer_1"
   x="0px"
   y="0px"
   width="42px"
   height="42px"
   viewBox="0 0 42 42"
   enable-background="new 0 0 42 42"
   xml:space="preserve"
   sodipodi:docname="TDE.svg"
   inkscape:version="0.92.2 5c3e80d, 2017-08-06"><metadata
     id="metadata108"><rdf:RDF><cc:Work
         rdf:about=""><dc:format>image/svg+xml</dc:format><dc:type
           rdf:resource="http://purl.org/dc/dcmitype/StillImage" /><dc:title></dc:title></cc:Work></rdf:RDF></metadata><defs
     id="defs106" /><sodipodi:namedview
     pagecolor="#ffffff"
     bordercolor="#666666"
     borderopacity="1"
     objecttolerance="10"
     gridtolerance="10"
     guidetolerance="10"
     inkscape:pageopacity="0"
     inkscape:pageshadow="2"
     inkscape:window-width="1156"
     inkscape:window-height="817"
     id="namedview104"
     showgrid="false"
     inkscape:zoom="14.214286"
     inkscape:cx="21"
     inkscape:cy="21"
     inkscape:window-x="0"
     inkscape:window-y="0"
     inkscape:window-maximized="0"
     inkscape:current-layer="Layer_1" /><polygon
     style="fill:#3d6480"
     id="polygon79"
     points="11.586,5.247 9.685,5.247 9.685,8.33 4.461,3.106 3.118,4.45 8.342,9.675 5.198,9.675 5.198,11.576 11.586,11.575 " /><path
     style="fill:#eff9fe"
     inkscape:connector-curvature="0"
     id="path81"
     d="M 29.7,32.996 29.642,8.584 H 19.435 l -4.334,4.334 h 2.241 v 0.801 h -2.439 v -0.603 l -2.897,2.897 V 32.995 H 29.7 Z M 20.163,12.918 h 6.643 v 0.801 h -6.643 z m 0,3.783 h 6.643 v 0.801 h -6.643 z m 0,3.781 h 6.643 v 0.801 h -6.643 z m 0,3.781 h 6.643 v 0.801 h -6.643 z m -5.26,-7.562 h 2.439 v 0.801 h -2.439 z m 0,3.781 h 2.439 v 0.801 h -2.439 z m 0,3.781 h 2.439 v 0.801 h -2.439 z" /><polygon
     style="fill:#3d6480"
     id="polygon83"
     points="19.435,8.584 29.642,8.584 29.7,32.996 12.006,32.996 12.006,16.014 10.306,17.714 10.306,34.695 31.404,34.695 31.338,6.885 21.134,6.885 " /><rect
     id="rect121"
     width="12.125131"
     height="13.182503"
     x="14.801"
     y="12.918497"
     style="fill:#eff9fe;fill-opacity:1;stroke-width:2.1774745" /><g
     id="g125"
     transform="matrix(1,0,0,-1,-6.5201931,41.620324)"><rect
       transform="rotate(90.393273)"
       x="9.7491474"
       y="-23.975271"
       width="6.6430001"
       height="0.801"
       id="rect87"
       style="fill:#3d6480" /><rect
       x="20.163"
       y="12.918"
       width="6.6430001"
       height="0.801"
       id="rect99"
       style="fill:#3d6480" /></g><g
     transform="matrix(1,0,0,-1,-2.6329495,35.757874)"
     id="g131"><rect
       style="fill:#3d6480"
       id="rect127"
       height="0.801"
       width="6.6430001"
       y="-23.975271"
       x="9.7491474"
       transform="rotate(90.393273)" /><rect
       style="fill:#3d6480"
       id="rect129"
       height="0.801"
       width="6.6430001"
       y="12.918"
       x="20.163" /></g><g
     id="g137"
     transform="matrix(1,0,0,-1,2.3620254,39.767924)"><rect
       transform="rotate(90.393273)"
       x="9.7491474"
       y="-23.975271"
       width="6.6430001"
       height="0.801"
       id="rect133"
       style="fill:#3d6480" /><rect
       x="20.163"
       y="12.918"
       width="6.6430001"
       height="0.801"
       id="rect135"
       style="fill:#3d6480" /></g><g
     transform="matrix(1,0,0,-1,2.2213219,29.426215)"
     id="g143"><rect
       style="fill:#3d6480"
       id="rect139"
       height="0.801"
       width="6.6430001"
       y="-23.975271"
       x="9.7491474"
       transform="rotate(90.393273)" /><rect
       style="fill:#3d6480"
       id="rect141"
       height="0.801"
       width="6.6430001"
       y="12.918"
       x="20.163" /></g><g
     id="g149"
     transform="matrix(1,0,0,-1,-7.9093314,32.380989)"><rect
       transform="rotate(90.393273)"
       x="9.7491474"
       y="-23.975271"
       width="6.6430001"
       height="0.801"
       id="rect145"
       style="fill:#3d6480" /><rect
       x="20.163"
       y="12.918"
       width="6.6430001"
       height="0.801"
       id="rect147"
       style="fill:#3d6480" /></g><g
     transform="matrix(1,0,0,-1,-3.7447897,26.614481)"
     id="g155"><rect
       style="fill:#3d6480"
       id="rect151"
       height="0.801"
       width="6.6430001"
       y="-23.975271"
       x="9.7491474"
       transform="rotate(90.393273)" /><rect
       style="fill:#3d6480"
       id="rect153"
       height="0.801"
       width="6.6430001"
       y="12.918"
       x="20.163" /></g></svg>